<svg width="158" height="56" viewBox="0 0 158 56" fill="none" xmlns="http://www.w3.org/2000/svg">
<path d="M9.90375 28.597H4.53088L6.19094 6.05802H14.5626L16.1334 13.6159L16.8474 17.4429L17.5257 13.6351L18.918 6.05802H26.3794L27.9145 28.597H22.3631L21.4527 15.3467L21.2385 10.462L18.5075 26.3469H13.8486L10.5642 10.462L10.4571 15.3467L9.90375 28.597Z" fill="#2C3F69"/>
<path d="M41.0626 28.597H28.4069V6.05802H40.7948L40.4378 10.5966L34.3152 10.4043V14.7505H39.1348V19.2506L34.3152 18.866V23.9815L41.0626 23.7892V28.597Z" fill="#2C3F69"/>
<path d="M51.8762 28.597L51.073 25.0007H46.0035L45.3252 28.597H40.0773L45.5216 7.61575L45.0932 6.05802H52.4653L58.4272 28.597H51.8762ZM48.3062 12.6735L46.7354 21.0776H50.1983L48.3062 12.6735Z" fill="#2C3F69"/>
<path d="M58.0603 28.597V6.05802H63.9686V23.443H69.288V28.597H58.0603Z" fill="#2C3F69"/>
<path d="M89.1563 27.0008L88.9957 27.2123C88.8767 27.3405 88.6744 27.5072 88.3888 27.7123C88.1151 27.9046 87.7819 28.1034 87.3892 28.3085C87.0084 28.5008 86.4967 28.6611 85.8541 28.7893C85.2115 28.9303 84.5213 29.0008 83.7835 29.0008C82.2245 29.0008 80.8917 28.7252 79.785 28.1739C78.6783 27.6098 77.8096 26.7956 77.1789 25.7315C76.5601 24.6546 76.1139 23.443 75.8402 22.0968C75.5665 20.7378 75.4296 19.1673 75.4296 17.3852C75.4296 15.4877 75.5665 13.8531 75.8402 12.4812C76.1139 11.0966 76.5661 9.88502 77.1968 8.84654C77.8394 7.79524 78.72 7.00676 79.8386 6.48111C80.9572 5.95545 82.3198 5.69263 83.9263 5.69263C84.6641 5.69263 85.3543 5.76314 85.9969 5.90417C86.6514 6.0452 87.1631 6.20546 87.532 6.38495C87.9128 6.56444 88.2519 6.76957 88.5494 7.00035C88.8588 7.23112 89.0492 7.39138 89.1206 7.48113C89.2039 7.57087 89.2634 7.64139 89.2991 7.69267L89.0314 12.1158H86.3182L85.39 9.82733C85.1758 9.76323 84.9973 9.73117 84.8545 9.73117C84.0572 9.73117 83.4443 9.9299 83.0159 10.3273C82.5875 10.712 82.2602 11.4748 82.0341 12.6159C81.8081 13.7441 81.695 15.3723 81.695 17.5006C81.695 18.7698 81.7664 19.8788 81.9092 20.8276C82.0639 21.7763 82.2484 22.5071 82.4626 23.0199C82.6768 23.5199 82.9326 23.9238 83.2301 24.2315C83.5276 24.5392 83.7954 24.7379 84.0334 24.8277C84.2714 24.9046 84.5272 24.943 84.8009 24.943C85.4078 24.943 86.0445 24.8661 86.7109 24.7123C87.3773 24.5456 87.9247 24.2956 88.3531 23.9623L89.1563 27.0008Z" fill="#2C3F69"/>
<path d="M99.9396 28.597L99.1363 25.0007H94.0669L93.3886 28.597H88.1407L93.5849 7.61575L93.1565 6.05802H100.529L106.491 28.597H99.9396ZM96.3696 12.6735L94.7988 21.0776H98.2617L96.3696 12.6735Z" fill="#2C3F69"/>
<path d="M111.996 21.0968V28.597H106.07V6.05802H108.426C108.997 6.05802 109.848 6.03238 110.979 5.98109C112.109 5.91699 113.044 5.88494 113.781 5.88494C116.352 5.88494 118.268 6.49393 119.529 7.7119C120.802 8.92988 121.439 10.7953 121.439 13.3082C121.439 14.7954 121.136 16.1159 120.529 17.2698C119.934 18.4237 119.142 19.3404 118.155 20.0199C118.69 20.1609 119.148 20.4878 119.529 21.0006C119.922 21.5135 120.225 22.1225 120.439 22.8276C120.654 23.5199 120.838 24.2251 120.993 24.943C121.159 25.6482 121.344 26.3469 121.546 27.0392C121.76 27.7316 121.992 28.2508 122.242 28.597H115.656C115.525 28.4175 115.424 27.9175 115.352 27.0969C115.281 26.2636 115.18 25.27 115.049 24.1161C114.93 22.9494 114.757 21.975 114.531 21.193C114.507 21.193 114.477 21.193 114.442 21.193C114.216 21.193 113.972 21.193 113.71 21.193C113.46 21.1801 113.24 21.1673 113.049 21.1545C112.859 21.1417 112.657 21.1289 112.443 21.116C112.24 21.1032 112.092 21.0968 111.996 21.0968ZM111.996 17.5198H112.568C112.865 17.5198 113.115 17.507 113.317 17.4813C113.52 17.4557 113.74 17.4108 113.978 17.3467C114.228 17.2698 114.43 17.1544 114.585 17.0006C114.751 16.8467 114.906 16.648 115.049 16.4044C115.191 16.1608 115.299 15.8467 115.37 15.4621C115.441 15.0774 115.477 14.6287 115.477 14.1159V12.5966C115.477 11.4812 115.203 10.7056 114.656 10.2696C114.12 9.82092 113.347 9.59656 112.335 9.59656H111.996V17.5198Z" fill="#2C3F69"/>
<path d="M129.361 25.4431C130.265 25.4431 130.955 24.8405 131.431 23.6353C131.919 22.4302 132.163 20.4429 132.163 17.6737V15.7313C132.163 13.7056 131.937 12.1415 131.485 11.0389C131.033 9.93631 130.39 9.38501 129.557 9.38501H128.218V25.4431H129.361ZM129.914 28.7316C129.486 28.7316 128.819 28.7059 127.915 28.6547C127.022 28.6162 126.1 28.597 125.148 28.597H122.31V6.05802H125.148C125.945 6.0452 126.814 6.01315 127.754 5.96186C128.694 5.91058 129.432 5.88494 129.968 5.88494C133.002 5.88494 135.174 6.80163 136.483 8.635C137.804 10.4684 138.464 13.1415 138.464 16.6544C138.464 17.8467 138.387 18.9814 138.232 20.0583C138.089 21.1353 137.816 22.2186 137.411 23.3084C137.007 24.3853 136.495 25.3148 135.876 26.0969C135.257 26.879 134.436 27.5136 133.413 28.0008C132.389 28.488 131.223 28.7316 129.914 28.7316Z" fill="#2C3F69"/>
<path d="M145.301 29.0008C144.385 29.0008 143.528 28.9111 142.731 28.7316C141.945 28.5649 141.285 28.3406 140.75 28.0585C140.214 27.7764 139.774 27.5072 139.429 27.2508C139.095 26.9944 138.816 26.738 138.59 26.4815L139.036 21.8084C139.524 22.5135 140.178 23.1289 140.999 23.6546C141.821 24.1674 142.707 24.4238 143.659 24.4238C144.611 24.4238 145.295 24.3148 145.712 24.0969C146.14 23.8789 146.354 23.4815 146.354 22.9045C146.354 22.2891 146.111 21.7635 145.623 21.3276C145.147 20.8917 144.32 20.366 143.141 19.7506C142.713 19.5198 142.35 19.3147 142.053 19.1352C141.755 18.9429 141.356 18.6352 140.857 18.2121C140.369 17.7762 139.97 17.3275 139.661 16.8659C139.351 16.3916 139.078 15.789 138.84 15.0582C138.602 14.3146 138.483 13.5197 138.483 12.6735C138.483 8.09652 140.88 5.80801 145.676 5.80801C146.438 5.80801 147.152 5.89776 147.818 6.07725C148.496 6.24392 149.026 6.42982 149.407 6.63495C149.788 6.84009 150.133 7.08368 150.442 7.36574C150.763 7.63498 150.966 7.82729 151.049 7.94267C151.132 8.04524 151.192 8.12858 151.228 8.19268L150.335 11.9043C149.871 11.3145 149.288 10.8786 148.586 10.5966C147.896 10.3017 147.235 10.1543 146.604 10.1543C145.081 10.1543 144.32 10.6671 144.32 11.6928C144.32 11.962 144.367 12.2056 144.462 12.4235C144.558 12.6415 144.712 12.8402 144.926 13.0197C145.141 13.1992 145.337 13.353 145.516 13.4813C145.706 13.6095 145.962 13.7697 146.283 13.962C146.616 14.1415 146.866 14.289 147.033 14.4044C148.77 15.1992 150.043 16.1416 150.853 17.2313C151.674 18.3211 152.084 19.6481 152.084 21.2122C152.084 23.7507 151.501 25.6866 150.335 27.02C149.181 28.3406 147.503 29.0008 145.301 29.0008Z" fill="#2C3F69"/>
<path d="M36.4812 47.8282V37.3384H37.9026V41.2362H37.9882C38.0706 41.0723 38.1895 40.8828 38.3448 40.6677C38.5001 40.4526 38.7156 40.2648 38.9913 40.1043C39.2671 39.9404 39.6315 39.8584 40.0848 39.8584C40.6743 39.8584 41.2004 40.0189 41.6631 40.3399C42.1259 40.6608 42.4887 41.1235 42.7518 41.7279C43.018 42.3323 43.1512 43.0596 43.1512 43.9099C43.1512 44.7601 43.0196 45.4891 42.7566 46.0969C42.4935 46.7013 42.1322 47.1674 41.6726 47.4952C41.2131 47.8196 40.6885 47.9818 40.099 47.9818C39.6553 47.9818 39.2924 47.9016 39.0103 47.7411C38.7314 47.5806 38.5127 47.3928 38.3543 47.1777C38.1958 46.9625 38.0738 46.7713 37.9882 46.604H37.8694V47.8282H36.4812ZM37.8741 43.8945C37.8741 44.4477 37.9486 44.9325 38.0975 45.3491C38.2465 45.7657 38.462 46.0918 38.7441 46.3274C39.0262 46.5596 39.3716 46.6757 39.7805 46.6757C40.2052 46.6757 40.5602 46.5545 40.8454 46.3121C41.1307 46.0662 41.3462 45.7333 41.492 45.3133C41.6409 44.8933 41.7154 44.4204 41.7154 43.8945C41.7154 43.3755 41.6425 42.9094 41.4967 42.4962C41.3541 42.083 41.1386 41.7569 40.8502 41.5179C40.5649 41.2789 40.2084 41.1594 39.7805 41.1594C39.3685 41.1594 39.0198 41.2738 38.7346 41.5026C38.4525 41.7313 38.2386 42.0506 38.0928 42.4604C37.947 42.8701 37.8741 43.3482 37.8741 43.8945Z" fill="#2C3F69"/>
<path d="M45.1297 50.7784C44.9174 50.7784 44.724 50.7596 44.5497 50.722C44.3754 50.6879 44.2454 50.6503 44.1599 50.6094L44.5022 49.3545C44.7621 49.4296 44.9934 49.4621 45.1963 49.4518C45.3991 49.4416 45.5782 49.3596 45.7335 49.206C45.892 49.0523 46.0314 48.8013 46.1518 48.453L46.3277 47.9306L43.6559 39.9608H45.1773L47.0266 46.0662H47.1027L48.952 39.9608H50.4781L47.4687 48.8782C47.3293 49.2879 47.1518 49.6345 46.9363 49.9179C46.7207 50.2047 46.464 50.4198 46.1661 50.5633C45.8682 50.7067 45.5227 50.7784 45.1297 50.7784Z" fill="#2C3F69"/>
<path d="M60.2459 40.094C60.1952 39.6091 59.986 39.2335 59.6184 38.9672C59.2507 38.6974 58.788 38.5626 58.2302 38.5626C57.8308 38.5626 57.4853 38.6309 57.1938 38.7674C56.9022 38.9006 56.6756 39.085 56.5139 39.3206C56.3555 39.5528 56.2762 39.8174 56.2762 40.1145C56.2762 40.3638 56.3301 40.5789 56.4379 40.7599C56.5488 40.9408 56.693 41.0928 56.8705 41.2157C57.0511 41.3352 57.2445 41.436 57.4505 41.5179C57.6565 41.5965 57.8546 41.6613 58.0447 41.7126L58.9956 41.9789C59.3062 42.0608 59.6247 42.1718 59.9511 42.3118C60.2776 42.4518 60.5803 42.6362 60.8592 42.865C61.1381 43.0938 61.3631 43.3772 61.5343 43.7152C61.7086 44.0533 61.7957 44.4579 61.7957 44.9291C61.7957 45.5233 61.6531 46.0508 61.3679 46.5118C61.0858 46.9728 60.6753 47.3364 60.1365 47.6028C59.6009 47.8691 58.9528 48.0023 58.1921 48.0023C57.4632 48.0023 56.8325 47.8777 56.3 47.6284C55.7675 47.3791 55.3508 47.0257 55.0497 46.5681C54.7486 46.1072 54.5822 45.5608 54.5505 44.9291H56.0243C56.0528 45.3082 56.1669 45.624 56.3665 45.8767C56.5694 46.126 56.8277 46.3121 57.1415 46.435C57.4584 46.5545 57.8055 46.6143 58.1826 46.6143C58.5978 46.6143 58.967 46.5443 59.2903 46.4043C59.6168 46.2608 59.8735 46.0628 60.0605 45.8101C60.2475 45.554 60.341 45.2552 60.341 44.9138C60.341 44.603 60.2586 44.3486 60.0938 44.1506C59.9321 43.9525 59.7118 43.7886 59.4329 43.6589C59.1572 43.5291 58.845 43.4147 58.4964 43.3157L57.3459 42.9777C56.5662 42.7489 55.9482 42.4126 55.4918 41.9687C55.0386 41.5247 54.812 40.9374 54.812 40.2067C54.812 39.6023 54.9641 39.0748 55.2684 38.624C55.5726 38.1733 55.9846 37.8233 56.5044 37.574C57.0242 37.3213 57.6105 37.195 58.2634 37.195C58.9227 37.195 59.5043 37.3196 60.0082 37.5689C60.5153 37.8182 60.9146 38.1613 61.2062 38.5984C61.4978 39.0321 61.6499 39.5306 61.6626 40.094H60.2459Z" fill="#2C3F69"/>
<path d="M71.741 42.5833C71.741 43.7033 71.5508 44.6662 71.1705 45.4721C70.7902 46.2745 70.2688 46.8925 69.6064 47.3262C68.9471 47.7564 68.1976 47.9716 67.3577 47.9716C66.5146 47.9716 65.7619 47.7564 65.0995 47.3262C64.4403 46.8925 63.9205 46.2728 63.5401 45.4669C63.1598 44.6611 62.9697 43.6999 62.9697 42.5833C62.9697 41.4633 63.1598 40.5021 63.5401 39.6996C63.9205 38.8938 64.4403 38.2757 65.0995 37.8455C65.7619 37.4118 66.5146 37.195 67.3577 37.195C68.1976 37.195 68.9471 37.4118 69.6064 37.8455C70.2688 38.2757 70.7902 38.8938 71.1705 39.6996C71.5508 40.5021 71.741 41.4633 71.741 42.5833ZM70.2862 42.5833C70.2862 41.7296 70.1579 41.0108 69.9011 40.4269C69.6476 39.8396 69.299 39.3957 68.8552 39.0952C68.4147 38.7913 67.9155 38.6394 67.3577 38.6394C66.7967 38.6394 66.2959 38.7913 65.8554 39.0952C65.4149 39.3957 65.0662 39.8396 64.8095 40.4269C64.5559 41.0108 64.4292 41.7296 64.4292 42.5833C64.4292 43.4369 64.5559 44.1574 64.8095 44.7447C65.0662 45.3286 65.4149 45.7725 65.8554 46.0764C66.2959 46.3769 66.7967 46.5272 67.3577 46.5272C67.9155 46.5272 68.4147 46.3769 68.8552 46.0764C69.299 45.7725 69.6476 45.3286 69.9011 44.7447C70.1579 44.1574 70.2862 43.4369 70.2862 42.5833Z" fill="#2C3F69"/>
<path d="M73.3047 47.8282V37.3384H79.3424V38.7009H74.7738V41.8969H78.9098V43.2543H74.7738V47.8282H73.3047Z" fill="#2C3F69"/>
<path d="M80.4011 38.7009V37.3384H87.9363V38.7009H84.8985V47.8282H83.4342V38.7009H80.4011Z" fill="#2C3F69"/>
<path d="M97.3729 42.5833C97.3729 43.7033 97.1827 44.6662 96.8024 45.4721C96.4221 46.2745 95.9007 46.8925 95.2383 47.3262C94.5791 47.7564 93.8295 47.9716 92.9896 47.9716C92.1465 47.9716 91.3938 47.7564 90.7314 47.3262C90.0722 46.8925 89.5524 46.2728 89.1721 45.4669C88.7917 44.6611 88.6016 43.6999 88.6016 42.5833C88.6016 41.4633 88.7917 40.5021 89.1721 39.6996C89.5524 38.8938 90.0722 38.2757 90.7314 37.8455C91.3938 37.4118 92.1465 37.195 92.9896 37.195C93.8295 37.195 94.5791 37.4118 95.2383 37.8455C95.9007 38.2757 96.4221 38.8938 96.8024 39.6996C97.1827 40.5021 97.3729 41.4633 97.3729 42.5833ZM95.9181 42.5833C95.9181 41.7296 95.7898 41.0108 95.5331 40.4269C95.2795 39.8396 94.9309 39.3957 94.4871 39.0952C94.0466 38.7913 93.5474 38.6394 92.9896 38.6394C92.4286 38.6394 91.9279 38.7913 91.4873 39.0952C91.0468 39.3957 90.6981 39.8396 90.4414 40.4269C90.1879 41.0108 90.0611 41.7296 90.0611 42.5833C90.0611 43.4369 90.1879 44.1574 90.4414 44.7447C90.6981 45.3286 91.0468 45.7725 91.4873 46.0764C91.9279 46.3769 92.4286 46.5272 92.9896 46.5272C93.5474 46.5272 94.0466 46.3769 94.4871 46.0764C94.9309 45.7725 95.2795 45.3286 95.5331 44.7447C95.7898 44.1574 95.9181 43.4369 95.9181 42.5833Z" fill="#2C3F69"/>
<path d="M106.795 37.3384V47.8282H105.445L100.496 40.135H100.406V47.8282H98.9367V37.3384H100.296L105.25 45.0418H105.34V37.3384H106.795Z" fill="#2C3F69"/>
<path d="M108.67 47.8282V37.3384H114.775V38.7009H110.139V41.8969H114.456V43.2543H110.139V46.4657H114.832V47.8282H108.67Z" fill="#2C3F69"/>
</svg>
